# xmcd
#
# Track frame offsets: 
#        150
#        16340
#        33593
#        70278
#        85230
#        100255
#        115253
#        142875
#        155353
#
# Disc length: 2208 seconds
#
# Revision: 4
# Processed by: cddbd v1.5.2PL0 Copyright (c) Steve Scherf et al.
# Submitted via: ExactAudioCopy v0.99pb4
#
DISCID=6e089e09
DTITLE=Rev. Billy C. Wirtz - Deep Fried And Sanctified
DYEAR=1989
DGENRE=Rock
TTITLE0=Teenie Weenie Meanie
TTITLE1=Will There Be A Shopping Mall In Heaven?
TTITLE2=Roberta
TTITLE3=Don't Think So Much
TTITLE4=Grandma's At The Wheel
TTITLE5=Inbred
TTITLE6=Beep Tone Blues
TTITLE7=All Stressed Up (With No Place To Blow)
TTITLE8=Your Greens Give Me The Blues
EXTD=YEAR: 1989
EXTT0=
EXTT1=
EXTT2=
EXTT3=
EXTT4=
EXTT5=
EXTT6=
EXTT7=
EXTT8=
PLAYORDER=
